<svg xmlns="http://www.w3.org/2000/svg" version="1.1" xmlns:xlink="http://www.w3.org/1999/xlink" width="700" height="700"><svg xmlns="http://www.w3.org/2000/svg" viewBox="218 218 700 700">
<path d="M754.705 495.448C714.883 522.44 681.053 557.82 655.741 599.091C651.088 596.57 646.383 594.128 641.599 591.819C597.624 570.533 548.365 558.616 496.347 558.616C486.411 558.616 476.58 559.041 466.855 559.916C453.37 561.084 440.096 563.075 427.111 565.835C474.53 464.925 569.762 391.406 683.235 375.03C663.679 409.295 649.853 447.302 643.097 487.751C654.006 486.689 665.046 486.132 676.217 486.132C703.238 486.132 729.523 489.343 754.705 495.448Z" fill="black"></path>
<path d="M785.481 627.769C777.108 640.113 770.65 653.851 766.507 668.527C776.28 681.639 785.167 695.434 793.082 709.797C800.369 722.994 806.884 736.703 812.485 750.839C814.428 755.674 816.257 760.567 817.943 765.487C825.286 786.478 830.716 808.35 834.088 830.904L834.116 831.104C834.316 832.412 834.459 833.72 834.631 835H238.862C238.862 835 223.602 831.616 222.145 816.37C220.83 802.576 228.889 795.863 228.889 795.863C228.889 795.863 271.38 754.281 279.039 745.919C285.668 738.694 284.982 721.089 284.668 716.538C284.668 716.509 284.639 716.481 284.668 716.452C278.439 689.887 275.152 662.184 275.152 633.742C275.152 613.833 276.753 594.293 279.867 575.236C294.469 485.273 342.19 406.317 410.2 351.253C411.229 387.261 420.658 421.193 436.632 451.114C458.921 392.864 504.527 346.105 562.107 322.128C553.106 346.531 548.219 372.897 548.219 400.401C548.219 454.47 567.165 504.13 598.826 543.182C607.199 553.535 616.457 563.12 626.516 571.823C632.631 577.142 639.003 582.119 645.661 586.784C647.204 581.664 649.005 576.658 651.119 571.823L652.748 568.126C675.38 519.347 724.987 485.472 782.538 485.472C791.282 485.472 799.826 486.24 808.141 487.748C779.366 500.092 755.505 521.566 740.189 548.5C734.702 558.171 730.302 568.552 727.187 579.474C751.79 559.451 783.252 547.448 817.485 547.448C838.803 547.448 859.005 552.113 877.179 560.446C880.78 562.096 884.323 563.888 887.752 565.822C883.837 566.249 879.98 566.846 876.179 567.585C838.488 575.009 806.141 597.165 785.481 627.769Z" fill="black"></path>
<path d="M512.719 489.824C512.719 524.211 517.519 557.46 526.464 589.003C503.203 557.488 487.915 519.774 483.543 478.817C467.255 496.366 452.71 515.508 440.109 535.986C418.706 570.799 403.018 609.481 394.331 650.722C394.302 650.637 394.274 650.552 394.216 650.466C369.927 601.773 356.297 546.908 356.297 488.857C356.297 419.714 375.671 355.064 409.304 300C404.389 323.778 401.818 348.409 401.818 373.637C401.818 410.442 407.304 445.966 417.534 479.471C438.023 427.564 470.199 381.459 510.776 344.37C527.178 329.409 544.923 315.928 563.84 304.096C538.037 347.328 520.948 396.334 515.033 448.668C513.49 462.178 512.719 475.916 512.719 489.824Z" fill="url(#paint0_linear_28_75)"></path>
<path d="M747.4 515.87C740.171 517.349 733.027 519.056 725.969 520.99C677.447 534.159 632.898 557.026 594.636 587.403C570.604 606.431 549.058 628.445 530.513 652.82C530.484 651.256 530.456 649.691 530.456 648.099C530.456 622.956 534.542 598.751 542.143 576.111C551.43 548.323 565.975 522.896 584.635 501.023C535.456 509.698 491.707 534.045 458.76 568.659C500.166 486.461 571.89 422.039 659.331 389.956C642.328 414.388 628.269 441.01 617.639 469.31C614.067 478.725 610.924 488.338 608.152 498.122C604.723 510.267 601.894 522.668 599.751 535.268C630.469 519.938 665.16 511.348 701.851 511.348C702.394 511.348 702.937 511.348 703.48 511.376C718.51 511.462 733.198 512.998 747.4 515.87Z" fill="white"></path>
<path d="M907.644 552.113C907.129 552.085 906.615 552.056 906.101 552.028C901.957 551.8 897.757 551.687 893.556 551.687C861.437 551.687 830.862 558.285 803.115 570.203C771.539 583.741 743.621 604.191 721.332 629.619C732.391 603.139 751.251 580.726 775.082 565.197C771.368 564.884 767.596 564.742 763.795 564.742C746.564 564.742 730.048 567.785 714.76 573.36C691.128 581.949 670.382 596.597 654.494 615.397C654.494 599.925 656.98 584.993 661.609 571.056C680.326 514.257 734.02 473.243 797.371 473.243C804.915 473.243 812.316 473.812 819.546 474.949C783.484 483.254 752.651 505.127 732.791 534.906C753.879 528.506 776.254 525.065 799.429 525.065C838.577 525.065 875.439 534.849 907.644 552.113Z" fill="url(#paint1_linear_28_75)"></path>
<path d="M913.245 637.213C870.525 651.065 836.663 684.399 822.261 726.693C812.145 703.854 799.715 682.266 785.256 662.186C809.574 643.072 840.292 631.667 873.668 631.667C887.413 631.667 900.672 633.601 913.245 637.213Z" fill="black"></path>
<path d="M900.848 744.384C876.302 748.252 855.099 762.075 841.525 781.558C838.154 768.731 834.096 756.159 829.381 743.929C840.182 739.293 852.07 736.733 864.586 736.733C877.102 736.733 889.761 739.463 900.848 744.384Z" fill="black"></path>
<path d="M366.303 738.467C373.799 738.467 379.876 732.419 379.876 724.957C379.876 717.496 373.799 711.447 366.303 711.447C358.806 711.447 352.729 717.496 352.729 724.957C352.729 732.419 358.806 738.467 366.303 738.467Z" fill="white"></path>
<path d="M414.5 585.5C405.945 607.117 400.198 627.314 394.5 652C367.943 603.392 352.135 547.837 352.135 488.529C352.135 420.907 371.776 357.863 405.683 304.821C388.693 345.404 379.294 389.963 379.294 436.692C379.294 489.589 393.052 540.796 414.5 585.5Z" fill="#FF251D"></path>
<path d="M406.33 801.106C406.416 798.927 408.253 797.23 410.433 797.316C412.612 797.402 414.309 799.238 414.223 801.418C414.179 802.533 415.34 808.691 410.267 813.964C408.403 815.901 405.949 816.991 403.908 817.596C401.97 818.17 400.002 818.426 398.479 818.405L398.181 818.397L397.978 818.384C395.897 818.196 394.307 816.406 394.39 814.295C394.473 812.183 396.2 810.525 398.289 810.501L398.492 810.504L398.747 810.507C399.405 810.496 400.497 810.368 401.663 810.023C403.021 809.621 404.028 809.056 404.574 808.488C406.973 805.995 406.204 804.314 406.33 801.106Z" fill="white"></path>
<path d="M766.557 807V759H780.765V807H766.557ZM766.557 735H780.765V747.864H766.557V735Z" fill="white"></path>
<path d="M698.688 782.904C698.688 768.408 708.767 757.56 722.303 757.56C729.503 757.56 735.551 760.728 739.583 765.912V759H752.16V807L739.583 807.096V800.088C735.551 805.272 729.503 808.44 722.207 808.44C708.671 808.44 698.688 797.496 698.688 782.904ZM710.975 783C710.975 791.64 716.543 797.784 724.799 797.784C732.96 797.784 738.911 791.736 738.911 783C738.911 774.168 732.96 768.12 724.512 768.12C716.16 768.216 710.975 774.36 710.975 783Z" fill="white"></path>
<path d="M650.021 769.656H640.229V759H648.773C649.541 759 650.021 758.52 650.021 757.848V744.6H664.037V759H676.997V769.656H664.037V786.456C664.037 792.696 666.437 795.576 671.717 795.576H676.997V807H669.797C656.645 807 650.021 801.336 650.021 788.472V769.656Z" fill="white"></path>
<path d="M578.875 782.904C578.875 768.408 588.955 757.56 602.491 757.56C609.691 757.56 615.739 760.728 619.771 765.912V759H632.347V807L619.771 807.096V800.088C615.739 805.272 609.691 808.44 602.395 808.44C588.859 808.44 578.875 797.496 578.875 782.904ZM591.163 783C591.163 791.64 596.731 797.784 604.987 797.784C613.147 797.784 619.099 791.736 619.099 783C619.099 774.168 613.147 768.12 604.699 768.12C596.347 768.216 591.163 774.36 591.163 783Z" fill="white"></path>
<path d="M518.963 735H532.499V764.568C537.107 759.672 543.155 757.56 550.067 757.56C562.547 757.56 569.555 764.568 569.555 777.336V807H556.019V780.024C556.019 772.44 552.179 768.792 545.267 768.792C537.299 768.792 532.499 773.496 532.499 780.024V807H518.963V735Z" fill="white"></path>
<path d="M463 783.096C463 768.024 473.656 757.56 488.92 757.56C498.424 757.56 506.008 761.592 510.616 769.176L501.304 774.84C498.328 770.136 494.392 767.928 489.208 767.928C480.664 767.928 475.288 773.784 475.288 783C475.288 792.312 480.568 798.168 489.112 798.168C494.392 798.168 498.328 795.864 501.304 791.16L510.616 796.824C506.008 804.408 498.424 808.44 488.92 808.44C473.656 808.44 463 798.072 463 783.096Z" fill="white"></path>
<defs>
<linearGradient id="SvgjsLinearGradient1003" x1="371.7" y1="622.957" x2="615.581" y2="581.552" gradientUnits="userSpaceOnUse">
<stop stop-color="#3A7BD5"></stop>
<stop offset="1" stop-color="#00BFFF"></stop>
</linearGradient>
<linearGradient id="SvgjsLinearGradient1002" x1="673.283" y1="617.239" x2="925.024" y2="500.318" gradientUnits="userSpaceOnUse">
<stop stop-color="#3A7BD5"></stop>
<stop offset="1" stop-color="#00BFFF"></stop>
</linearGradient>
</defs>
</svg><style>@media (prefers-color-scheme: light) { :root { filter: none; } }
@media (prefers-color-scheme: dark) { :root { filter: none; } }
</style></svg>